<svg viewBox="0 0 48 38" xmlns="http://www.w3.org/2000/svg" preserveAspectRatio="xMidYMid meet">
  <!-- Cropped Muso mark (left symbol) — uses currentColor so it inherits the icon color -->
  <path d="M38.2973 1.7049L25.0906 14.7324C24.5691 15.2445 23.7327 15.2445 23.2144 14.7324L10.0108 1.7049C6.29332 -1.95996 0 0.67416 0 5.89469V24.0695V31.097V34.9814C0 36.1012 0.906314 37.0079 2.02569 37.0079C3.14507 37.0079 4.05138 36.1012 4.05138 34.9814L4.05456 5.64654C4.05456 4.67624 4.85594 3.89046 5.83221 3.92227C6.77669 3.95091 7.50492 4.77486 7.50492 5.71971L7.49538 27.903C7.49538 28.8478 8.22361 29.6718 9.16809 29.7004C10.1444 29.729 10.9457 28.9464 10.9457 27.9761V12.076C11.0729 11.2488 11.7853 10.6126 12.6502 10.6126C13.6043 10.6126 14.377 11.3856 14.377 12.34L14.3834 21.254C14.3834 22.1957 15.1466 22.9592 16.0879 22.9592C17.0292 22.9592 17.7924 22.1957 17.7924 21.254V17.007C17.7924 16.2944 18.651 15.9349 19.1566 16.4344L38.2973 35.2836C42.0148 38.9485 48.3081 36.3175 48.3081 31.0938V5.89469C48.305 0.67416 42.0116 -1.95996 38.2973 1.7049Z" fill="currentColor"/>
</svg>
