<svg width="200" height="38" viewBox="0 0 200 38" fill="none" xmlns="http://www.w3.org/2000/svg">
<path d="M38.2973 1.7049L25.0906 14.7324C24.5691 15.2445 23.7327 15.2445 23.2144 14.7324L10.0108 1.7049C6.29332 -1.95996 0 0.67416 0 5.89469V24.0695V31.097V34.9814C0 36.1012 0.906314 37.0079 2.02569 37.0079C3.14507 37.0079 4.05138 36.1012 4.05138 34.9814L4.05456 5.64654C4.05456 4.67624 4.85594 3.89046 5.83221 3.92227C6.77669 3.95091 7.50492 4.77486 7.50492 5.71971L7.49538 27.903C7.49538 28.8478 8.22361 29.6718 9.16809 29.7004C10.1444 29.729 10.9457 28.9464 10.9457 27.9761V12.076C11.0729 11.2488 11.7853 10.6126 12.6502 10.6126C13.6043 10.6126 14.377 11.3856 14.377 12.34L14.3834 21.254C14.3834 22.1957 15.1466 22.9592 16.0879 22.9592C17.0292 22.9592 17.7924 22.1957 17.7924 21.254V17.007C17.7924 16.2944 18.651 15.9349 19.1566 16.4344L38.2973 35.2836C42.0148 38.9485 48.3081 36.3175 48.3081 31.0938V5.89469C48.305 0.67416 42.0116 -1.95996 38.2973 1.7049ZM30.5126 19.9815C30.5126 20.6941 29.654 21.0536 29.1483 20.5541L27.641 19.0685C27.323 18.7535 27.323 18.2413 27.641 17.9264L29.1483 16.4407C29.654 15.9413 30.5126 16.3007 30.5126 17.0134V19.9815ZM37.4165 24.6199C37.4165 25.5902 36.6151 26.3759 35.6388 26.3441C34.6944 26.3155 33.9661 25.4915 33.9661 24.5467V12.4418C33.9661 11.497 34.6944 10.673 35.6388 10.6444C36.6151 10.6157 37.4165 11.3983 37.4165 12.3686V24.6199ZM44.3172 31.412C44.3172 32.3663 43.5444 33.1394 42.5904 33.1394C41.6364 33.1394 40.8637 32.3663 40.8637 31.412V5.57655C40.8637 4.62216 41.6364 3.8491 42.5904 3.8491C43.5444 3.8491 44.3172 4.62216 44.3172 5.57655V31.412Z" fill="currentColor"/>
<path fill-rule="evenodd" clip-rule="evenodd" d="M73.2591 23.2751C73.3799 23.5646 73.5008 23.8604 73.6184 24.1531C73.7361 23.8477 73.8569 23.5487 73.9841 23.2528C74.1113 22.9569 74.2449 22.6738 74.388 22.4066L79.7718 12.2741C79.8386 12.1469 79.9086 12.0451 79.9785 11.9687C80.0517 11.8924 80.1312 11.8383 80.217 11.8033C80.3029 11.7683 80.4046 11.7492 80.5128 11.7397C80.6209 11.7333 80.7513 11.7269 80.9039 11.7269H83.4575V30.0194H80.4746V18.2073C80.4746 17.9877 80.481 17.746 80.4937 17.4851C80.5064 17.2242 80.5255 16.957 80.5509 16.6898L75.0526 27.064C74.9286 27.2994 74.7632 27.4839 74.5629 27.6144C74.3625 27.7448 74.1272 27.8116 73.8569 27.8116H73.3895C73.1223 27.8116 72.887 27.7448 72.6835 27.6144C72.48 27.4839 72.3178 27.2994 72.1938 27.064L66.6191 16.6516C66.6541 16.9284 66.6764 17.202 66.6891 17.4692C66.7018 17.7364 66.7082 17.9814 66.7082 18.2104V30.0258H63.7253V11.7333H66.2789C66.4283 11.7333 66.5587 11.7365 66.67 11.746C66.7781 11.7556 66.8767 11.7746 66.9658 11.8096C67.0548 11.8446 67.1343 11.8987 67.2106 11.9751C67.2869 12.0514 67.3569 12.1532 67.4237 12.2805L72.8584 22.4384C73.0047 22.7056 73.1382 22.9856 73.2591 23.2751Z" fill="currentColor"/>
<path fill-rule="evenodd" clip-rule="evenodd" d="M100.337 27.1077C100.989 27.1077 101.571 26.9995 102.083 26.7832C102.595 26.5669 103.031 26.2615 103.384 25.8702C103.737 25.4789 104.01 25.0017 104.198 24.4449C104.385 23.885 104.481 23.2615 104.481 22.568V11.7292H107.848V22.5648C107.848 23.6401 107.674 24.6358 107.33 25.5488C106.984 26.4619 106.487 27.2508 105.836 27.9126C105.184 28.5775 104.395 29.0928 103.473 29.465C102.547 29.8341 101.504 30.0218 100.344 30.0218C99.1828 30.0218 98.143 29.8341 97.2144 29.465C96.289 29.096 95.5035 28.5775 94.858 27.9126C94.2124 27.2477 93.7131 26.4619 93.3697 25.5488C93.0231 24.6358 92.8513 23.6401 92.8513 22.5648V11.7292H96.219V22.5521C96.219 23.2424 96.3112 23.8691 96.4989 24.429C96.6865 24.9889 96.9568 25.4661 97.3066 25.8606C97.6564 26.2583 98.0889 26.5637 98.6009 26.78C99.1065 26.9995 99.6853 27.1077 100.337 27.1077Z" fill="currentColor"/>
<path fill-rule="evenodd" clip-rule="evenodd" d="M126.7 15.1269C126.608 15.3114 126.499 15.4386 126.379 15.515C126.258 15.5913 126.111 15.6263 125.943 15.6263C125.774 15.6263 125.587 15.5627 125.377 15.4323C125.167 15.305 124.919 15.1587 124.633 14.9996C124.347 14.8405 124.013 14.6974 123.631 14.567C123.249 14.4397 122.798 14.3729 122.276 14.3729C121.806 14.3729 121.395 14.427 121.049 14.5415C120.699 14.6528 120.406 14.8119 120.168 15.0092C119.929 15.2096 119.748 15.4482 119.634 15.7281C119.516 16.0081 119.456 16.3135 119.456 16.6475C119.456 17.0738 119.576 17.4269 119.815 17.7101C120.053 17.9932 120.371 18.235 120.766 18.4354C121.16 18.6358 121.609 18.814 122.114 18.9731C122.62 19.1321 123.132 19.3007 123.66 19.4789C124.184 19.6602 124.7 19.867 125.205 20.1056C125.711 20.3442 126.159 20.6433 126.554 21.0059C126.948 21.3686 127.266 21.8108 127.504 22.3357C127.743 22.8606 127.864 23.4969 127.864 24.2477C127.864 25.0653 127.724 25.8288 127.441 26.5414C127.158 27.254 126.747 27.8744 126.207 28.4056C125.663 28.9337 125.002 29.3505 124.223 29.6559C123.44 29.9613 122.547 30.1108 121.535 30.1108C120.957 30.1108 120.384 30.0567 119.821 29.9422C119.258 29.8277 118.718 29.6686 118.2 29.4618C117.684 29.255 117.201 29.0037 116.753 28.711C116.304 28.4215 115.904 28.0939 115.551 27.7344L116.533 26.1215C116.625 26.0038 116.737 25.9083 116.867 25.8288C116.997 25.7492 117.144 25.7111 117.303 25.7111C117.513 25.7111 117.738 25.797 117.983 25.9656C118.228 26.1374 118.514 26.3251 118.848 26.535  C119.179 26.745 119.57 26.9327 120.019 27.1045C120.467 27.2763 121.007 27.359 121.637 27.359C122.604 27.359 123.351 27.1331 123.882 26.6782C124.41 26.2233 124.677 25.5711 124.677 24.7217C124.677 24.2477 124.556 23.8596 124.318 23.5605C124.079 23.2615 123.761 23.007 123.367 22.8034C122.973 22.5998 122.524 22.428 122.019 22.2848C121.513 22.1416 121.001 21.9889 120.48 21.8235C119.958 21.6581 119.446 21.4577 118.94 21.2222C118.435 20.99 117.986 20.6846 117.592 20.3092C117.198 19.9338 116.88 19.4662 116.641 18.9031C116.403 18.34 116.282 17.6465 116.282 16.8225C116.282 16.164 116.412 15.5213 116.679 14.8978C116.943 14.2711 117.331 13.7175 117.84 13.234C118.349 12.7504 118.972 12.3623 119.71 12.0728C120.451 11.7801 121.294 11.6338 122.245 11.6338C123.319 11.6338 124.312 11.7992 125.218 12.1333C126.124 12.4673 126.897 12.9318 127.536 13.533L126.7 15.1269Z" fill="currentColor"/>
<path fill-rule="evenodd" clip-rule="evenodd" d="M150.025 20.8818C150.025 19.8861 149.895 18.9921 149.634 18.2032C149.374 17.411 148.998 16.7398 148.512 16.1894C148.025 15.6359 147.43 15.2128 146.731 14.9201C146.031 14.6274 145.243 14.4811 144.362 14.4811C143.484 14.4811 142.692 14.6274 141.989 14.9201C141.287 15.2128 140.686 15.6359 140.196 16.1894C139.703 16.743 139.325 17.4142 139.057 18.2032C138.793 18.9953 138.66 19.8861 138.66 20.8818C138.66 21.8776 138.793 22.7715 139.057 23.5605C139.321 24.3495 139.7 25.0207 140.196 25.5711C140.689 26.1183 141.287 26.5382 141.989 26.8341C142.692 27.1267 143.484 27.2731 144.362 27.2731C145.239 27.2731 146.028 27.1267 146.731 26.8341C147.43 26.5414 148.025 26.1215 148.512 25.5711C149.001 25.0239 149.377 24.3526 149.634 23.5605C149.895 22.7715 150.025 21.8776 150.025 20.8818ZM153.813 20.8755C153.813 22.1989 153.59 23.4269 153.145 24.5563C152.7 25.6856 152.073 26.6623 151.269 27.4894C150.464 28.3134 149.491 28.9592 148.359 29.4205C147.224 29.8849 145.971 30.114 144.591 30.114C143.214 30.114 141.958 29.8818 140.819 29.4205C139.681 28.9592 138.708 28.3134 137.897 27.4894C137.086 26.6623 136.459 25.6888 136.014 24.5563C135.569 23.4269 135.346 22.1989 135.346 20.8755C135.346 19.5521 135.569 18.3241 136.014 17.1947C136.459 16.0653 137.086 15.0887 137.897 14.2615C138.708 13.4344 139.681 12.7918 140.819 12.3305C141.958 11.8692 143.214 11.637 144.591 11.637C145.968 11.637 147.224 11.8692 148.359 12.3368C149.494 12.8045 150.464 13.4471 151.269 14.2679C152.077 15.0887 152.7 16.0653 153.145 17.1947C153.59 18.3241 153.813 19.5521 153.813 20.8755Z" fill="currentColor"/>
<path d="M161.283 25.4661C162.669 25.4693 163.754 26.5637 163.744 27.9507C163.735 29.3441 162.65 30.4194 161.254 30.4131C159.852 30.4067 158.79 29.3346 158.793 27.9221C158.799 26.5287 159.877 25.463 161.283 25.4661Z" fill="currentColor"/>
<path d="M200 11.7802H197.214V29.974H200V11.7802Z" fill="currentColor"/>
<path d="M188.978 29.5255C187.067 24.6581 185.156 19.7875 183.241 14.9169L182.074 11.9074C182.033 11.7992 181.928 11.7292 181.813 11.7292H179.565C178.916 11.7292 178.331 12.1301 178.096 12.7345L177.88 13.2945C177.88 13.2976 177.876 13.2976 177.876 13.3008C176.919 15.7504 175.965 18.2 175.005 20.6496C173.835 23.6369 172.668 26.621 171.485 29.6018C171.357 29.92 171.402 29.9995 171.752 29.9931C172.493 29.9804 173.234 30.0027 173.974 30.0154C174.671 30.0281 175.078 29.7577 175.326 29.0896C175.717 28.0366 176.108 26.9836 176.477 25.9242C176.569 25.6602 176.69 25.5711 176.98 25.5711C179.056 25.5807 181.133 25.5679 183.209 25.5648C183.842 25.5648 183.934 25.6379 184.125 26.236C184.43 27.1936 184.771 28.1384 185.184 29.0578C185.432 29.6114 185.811 29.9836 186.459 29.99C187.184 29.9963 187.913 30.0154 188.638 30.0154C189.169 30.0218 189.169 30.0122 188.978 29.5255ZM182.666 23.0197C180.977 23.0133 179.292 23.0165 177.549 23.0165C178.449 20.5478 179.33 18.1237 180.249 15.6041C180.742 16.972 181.203 18.2446 181.664 19.5171C182.052 20.586 182.437 21.6549 182.828 22.7207C182.895 22.8988 182.949 23.0229 182.666 23.0197Z" fill="currentColor"/>
</svg>
